<svg width="39" height="50" viewBox="0 0 39 50" fill="none" xmlns="http://www.w3.org/2000/svg">
<path d="M17.0896 48.5507C11.7891 42.3068 0 27.1736 0 18.6733C0 8.36021 8.72861 0 19.4962 0C30.2597 0 38.9924 8.36021 38.9924 18.6733C38.9924 27.1736 27.1119 42.3068 21.9028 48.5507C20.6538 50.0387 18.3386 50.0387 17.0896 48.5507ZM19.4962 24.8978C23.0807 24.8978 25.9949 22.1065 25.9949 18.6733C25.9949 15.2402 23.0807 12.4489 19.4962 12.4489C15.9117 12.4489 12.9975 15.2402 12.9975 18.6733C12.9975 22.1065 15.9117 24.8978 19.4962 24.8978Z" fill="#D81B16"/>
</svg>
