<svg width="624" height="100" viewBox="0 0 624 100" fill="none" xmlns="http://www.w3.org/2000/svg">
<path d="M291.1 24.5C291.1 72.8 291.1 72.8 291.1 72.8C291.1 77.3 286.2 82.2 281.7 82.2C280.2 82.2 280.2 82.2 280.2 82.2C280.2 94.7 280.2 94.7 280.2 94.7C328.1 94.7 328.1 94.7 328.1 94.7C328.1 82.2 328.1 82.2 328.1 82.2C326.6 82.2 326.6 82.2 326.6 82.2C322.1 82.2 317.5 77.3 317.5 72.8C317.5 24.5 317.5 24.5 317.5 24.5C317.5 20 322 15.4 326.6 15.4C328.1 15.4 328.1 15.4 328.1 15.4C328.1 4.49999 328.1 4.5 328.1 4.5C280.2 4.5 280.2 4.5 280.2 4.5C280.2 15.4 280.2 15.4 280.2 15.4C281.7 15.4 281.7 15.4 281.7 15.4C286.2 15.4 291.1 20 291.1 24.5Z" fill="#FC0019"/>
<path d="M434.1 75.8C440.1 68.3 443.2 58.8 443.2 49.4C443.2 38.5 440.2 29.4 434.1 23C427.7 15.5 419.8 12.1 410.7 12.1C401.3 12.1 391.8 15.5 387.3 23C380.9 30.9 377.9 38.5 377.9 49.4C377.9 58.8 380.9 68.3 387.3 75.8C391.8 82.2 401.3 86.7 410.7 86.7C419.8 86.8 427.7 82.3 434.1 75.8ZM380.9 94.7C360.9 89.8 345.4 71.3 345.4 49.4C345.4 27.9 359.4 9 379.4 3C388.8 1.5 399.8 0 410.7 0C421.6 0 430.7 1.5 441.7 3C462.1 9 476.1 27.9 476.1 49.4C476.1 64.9 465.2 86.8 441.7 94.7C432.3 97.7 421.7 97.7 410.7 97.7C401.3 97.7 391.8 97.7 382.8 94.7H380.9Z" fill="#FC0019"/>
<path d="M88.7 75.8C95.1 68.3 98.1 58.8 98.1 49.4C98.1 38.5 95.1 29.4 88.7 23C82.7 15.5 74.7 12.1 65.3 12.1C56.2 12.1 46.8 15.5 42.3 23C35.9 30.9 32.9 38.5 32.9 49.4C32.9 58.8 35.9 68.3 42.3 75.8C46.8 82.2 56.3 86.7 65.3 86.7C74.8 86.8 82.7 82.3 88.7 75.8ZM35.9 94.7C15.9 89.8 0 71.3 0 49.4C0 27.9 14 9 34.4 3C43.8 1.5 54.8 0 65.4 0C76.3 0 85.8 1.5 95.2 3C96.7 3 96.7 3 96.7 3C115.2 9 130.7 27.9 130.7 49.4C130.7 64.9 120.1 86.8 96.7 94.7C87.3 97.7 76.3 99.2 65.4 99.2C56.3 99.2 46.9 97.7 37.5 94.7H35.9Z" fill="#FC0019"/>
<path d="M612.7 94.7C612.7 24.5 612.7 24.5 612.7 24.5C612.7 20 617.6 15.4 622.1 15.4C623.6 15.4 623.6 15.4 623.6 15.4C623.6 4.49999 623.6 4.5 623.6 4.5C587.7 4.5 587.7 4.5 587.7 4.5C587.7 15.4 587.7 15.4 587.7 15.4C589.2 15.4 589.2 15.4 589.2 15.4C594.1 15.4 598.6 19.9 598.6 24.5C598.6 60.4 598.6 60.4 598.6 60.4C523.9 4.49999 523.9 4.5 523.9 4.5C492.9 4.5 492.9 4.5 492.9 4.5C492.9 15.4 492.9 15.4 492.9 15.4C494.4 15.4 494.4 15.4 494.4 15.4C498.9 15.4 503.8 19.9 503.8 24.5C503.8 72.8 503.8 72.8 503.8 72.8C503.8 77.3 498.9 82.2 494.4 82.2C492.9 82.2 492.9 82.2 492.9 82.2C492.9 94.7 492.9 94.7 492.9 94.7C528.8 94.7 528.8 94.7 528.8 94.7C528.8 82.2 528.8 82.2 528.8 82.2C527.3 82.2 527.3 82.2 527.3 82.2C522.4 82.2 519.4 77.3 519.4 72.8C519.4 33.9 519.4 33.9 519.4 33.9C597.2 94.7 597.2 94.7 597.2 94.7" fill="#FC0019"/>
<path d="M223.9 29.4C223.9 21.5 217.9 15.4 209.9 15.4C185.4 15.4 185.4 15.4 185.4 15.4C185.4 44.8 185.4 44.8 185.4 44.8C209.9 44.8 209.9 44.8 209.9 44.8C217.8 44.9 223.9 38.5 223.9 29.4ZM219.3 83.8C206.8 69.8 206.8 69.8 206.8 69.8L219.3 83.8ZM256.7 30.9C256.7 46.4 245.8 57.3 231.8 57.3C252.2 78.8 252.2 78.8 252.2 78.8C255.2 80.7 256.7 82.2 258.2 82.2C261.2 82.2 261.2 82.2 261.2 82.2C261.2 94.7 261.2 94.7 261.2 94.7C228.7 94.7 228.7 94.7 228.7 94.7C192.8 55.8 192.8 55.8 192.8 55.8C185.3 55.8 185.3 55.8 185.3 55.8C185.3 72.8 185.3 72.8 185.3 72.8C185.3 77.3 188.3 82.2 192.8 82.2C194.3 82.2 194.3 82.2 194.3 82.2C194.3 94.7 194.3 94.7 194.3 94.7C147.9 94.7 147.9 94.7 147.9 94.7C147.9 82.2 147.9 82.2 147.9 82.2C153.9 82.2 157 77.3 157 72.8C157 24.5 157 24.5 157 24.5C157 20 154 15.4 147.9 15.4C147.9 4.49999 147.9 4.5 147.9 4.5H230.3C247.3 4.5 256.7 18.5 256.7 30.9Z" fill="#FC0019"/>
</svg>
