<svg width="24" height="24" viewBox="0 0 24 24" fill="none" xmlns="http://www.w3.org/2000/svg">
<path fill-rule="evenodd" clip-rule="evenodd" d="M12 24C18.6274 24 24 18.6274 24 12C24 5.37258 18.6274 0 12 0C5.37258 0 0 5.37258 0 12C0 18.6274 5.37258 24 12 24ZM10.3235 8.01019H8.50351V16.2002H10.3235V13.6002C10.3235 13.0802 10.3192 12.5689 10.3105 12.0662C10.3018 11.5635 10.2758 11.0392 10.2325 10.4932H10.2585C10.4405 11.0219 10.6615 11.5245 10.9215 12.0012C11.1815 12.4779 11.4675 12.9459 11.7795 13.4052L13.6775 16.2002H15.4975V8.01019H13.6775V10.5322C13.6775 11.0522 13.6818 11.5765 13.6905 12.1052C13.6992 12.6252 13.7252 13.1452 13.7685 13.6652H13.7425C13.5778 13.2492 13.3438 12.7855 13.0405 12.2742C12.7458 11.7542 12.4382 11.2472 12.1175 10.7532L10.3235 8.01019Z" fill="#2DB400"/>
</svg>
