<svg width="24" height="24" viewBox="0 0 24 24" fill="none" xmlns="http://www.w3.org/2000/svg">
<rect width="24" height="24" rx="12" fill="#FBFBFB"/>
<path d="M6.75 7.33333C6.5375 7.33333 6.35925 7.26933 6.21525 7.14133C6.07175 7.01378 6 6.85556 6 6.66667C6 6.47778 6.07175 6.31933 6.21525 6.19133C6.35925 6.06378 6.5375 6 6.75 6H17.25C17.4625 6 17.6405 6.06378 17.784 6.19133C17.928 6.31933 18 6.47778 18 6.66667C18 6.85556 17.928 7.01378 17.784 7.14133C17.6405 7.26933 17.4625 7.33333 17.25 7.33333H6.75ZM12 18C11.7875 18 11.6095 17.936 11.466 17.808C11.322 17.6804 11.25 17.5222 11.25 17.3333V11.2L9.80625 12.4833C9.66875 12.6056 9.5 12.6667 9.3 12.6667C9.1 12.6667 8.925 12.6 8.775 12.4667C8.6375 12.3444 8.56875 12.1889 8.56875 12C8.56875 11.8111 8.6375 11.6556 8.775 11.5333L11.475 9.13333C11.55 9.06667 11.6312 9.01956 11.7188 8.992C11.8063 8.964 11.9 8.95 12 8.95C12.1 8.95 12.1937 8.964 12.2812 8.992C12.3688 9.01956 12.45 9.06667 12.525 9.13333L15.2438 11.55C15.3813 11.6722 15.45 11.8222 15.45 12C15.45 12.1778 15.375 12.3333 15.225 12.4667C15.0875 12.5889 14.9125 12.65 14.7 12.65C14.4875 12.65 14.3125 12.5889 14.175 12.4667L12.75 11.2V17.3333C12.75 17.5222 12.6783 17.6804 12.5348 17.808C12.3908 17.936 12.2125 18 12 18Z" fill="#222222"/>
</svg>
