<svg width="887" height="887" viewBox="0 0 887 887" fill="none" xmlns="http://www.w3.org/2000/svg">
<circle r="399.811" transform="matrix(-1 0 0 1 486.689 400.311)" stroke="url(#paint0_linear_203_134)"/>
<circle r="399.811" transform="matrix(-1 0 0 1 486.689 400.311)" stroke="url(#paint1_linear_203_134)"/>
<circle r="399.811" transform="matrix(-1 0 0 1 483.903 403.097)" stroke="url(#paint2_linear_203_134)"/>
<circle r="399.811" transform="matrix(-1 0 0 1 481.116 405.884)" stroke="url(#paint3_linear_203_134)"/>
<circle r="399.811" transform="matrix(-1 0 0 1 478.33 408.67)" stroke="url(#paint4_linear_203_134)"/>
<circle r="399.811" transform="matrix(-1 0 0 1 475.543 411.457)" stroke="url(#paint5_linear_203_134)"/>
<circle r="399.811" transform="matrix(-1 0 0 1 472.757 414.243)" stroke="url(#paint6_linear_203_134)"/>
<circle r="399.811" transform="matrix(-1 0 0 1 469.971 417.029)" stroke="url(#paint7_linear_203_134)"/>
<circle r="399.811" transform="matrix(-1 0 0 1 467.184 419.816)" stroke="url(#paint8_linear_203_134)"/>
<circle r="399.811" transform="matrix(-1 0 0 1 464.398 422.602)" stroke="url(#paint9_linear_203_134)"/>
<circle r="399.811" transform="matrix(-1 0 0 1 461.611 425.388)" stroke="url(#paint10_linear_203_134)"/>
<circle r="399.811" transform="matrix(-1 0 0 1 458.825 428.175)" stroke="url(#paint11_linear_203_134)"/>
<circle r="399.811" transform="matrix(-1 0 0 1 456.039 430.961)" stroke="url(#paint12_linear_203_134)"/>
<circle r="399.811" transform="matrix(-1 0 0 1 453.252 433.748)" stroke="url(#paint13_linear_203_134)"/>
<circle r="399.811" transform="matrix(-1 0 0 1 450.466 436.534)" stroke="url(#paint14_linear_203_134)"/>
<circle r="399.811" transform="matrix(-1 0 0 1 447.68 439.321)" stroke="url(#paint15_linear_203_134)"/>
<circle r="399.811" transform="matrix(-1 0 0 1 444.893 442.107)" stroke="url(#paint16_linear_203_134)"/>
<circle r="399.811" transform="matrix(-1 0 0 1 442.107 444.893)" stroke="url(#paint17_linear_203_134)"/>
<circle r="399.811" transform="matrix(-1 0 0 1 439.32 447.68)" stroke="url(#paint18_linear_203_134)"/>
<circle r="399.811" transform="matrix(-1 0 0 1 436.534 450.466)" stroke="url(#paint19_linear_203_134)"/>
<circle r="399.811" transform="matrix(-1 0 0 1 433.748 453.252)" stroke="url(#paint20_linear_203_134)"/>
<circle r="399.811" transform="matrix(-1 0 0 1 430.961 456.039)" stroke="url(#paint21_linear_203_134)"/>
<circle r="399.811" transform="matrix(-1 0 0 1 428.175 458.825)" stroke="url(#paint22_linear_203_134)"/>
<circle r="399.811" transform="matrix(-1 0 0 1 425.388 461.612)" stroke="url(#paint23_linear_203_134)"/>
<circle r="399.811" transform="matrix(-1 0 0 1 422.602 464.398)" stroke="url(#paint24_linear_203_134)"/>
<circle r="399.811" transform="matrix(-1 0 0 1 419.816 467.184)" stroke="url(#paint25_linear_203_134)"/>
<circle r="399.811" transform="matrix(-1 0 0 1 417.029 469.971)" stroke="url(#paint26_linear_203_134)"/>
<circle r="399.811" transform="matrix(-1 0 0 1 414.243 472.757)" stroke="url(#paint27_linear_203_134)"/>
<circle r="399.811" transform="matrix(-1 0 0 1 411.457 475.543)" stroke="url(#paint28_linear_203_134)"/>
<circle r="399.811" transform="matrix(-1 0 0 1 408.67 478.33)" stroke="url(#paint29_linear_203_134)"/>
<circle r="399.811" transform="matrix(-1 0 0 1 405.884 481.116)" stroke="url(#paint30_linear_203_134)"/>
<circle r="399.811" transform="matrix(-1 0 0 1 403.097 483.903)" stroke="url(#paint31_linear_203_134)"/>
<circle r="399.811" transform="matrix(-1 0 0 1 400.311 486.689)" stroke="url(#paint32_linear_203_134)"/>
<defs>
<linearGradient id="paint0_linear_203_134" x1="400.311" y1="0" x2="400.311" y2="800.622" gradientUnits="userSpaceOnUse">
<stop stop-color="#D81B16"/>
<stop offset="1" stop-color="#15AB49" stop-opacity="0"/>
</linearGradient>
<linearGradient id="paint1_linear_203_134" x1="400.311" y1="0" x2="400.311" y2="800.622" gradientUnits="userSpaceOnUse">
<stop stop-color="#D81B16"/>
<stop offset="1" stop-color="#15AB49" stop-opacity="0"/>
</linearGradient>
<linearGradient id="paint2_linear_203_134" x1="400.311" y1="0" x2="400.311" y2="800.622" gradientUnits="userSpaceOnUse">
<stop stop-color="#D81B16"/>
<stop offset="1" stop-color="#15AB49" stop-opacity="0"/>
</linearGradient>
<linearGradient id="paint3_linear_203_134" x1="400.311" y1="0" x2="400.311" y2="800.622" gradientUnits="userSpaceOnUse">
<stop stop-color="#D81B16"/>
<stop offset="1" stop-color="#15AB49" stop-opacity="0"/>
</linearGradient>
<linearGradient id="paint4_linear_203_134" x1="400.311" y1="0" x2="400.311" y2="800.622" gradientUnits="userSpaceOnUse">
<stop stop-color="#D81B16"/>
<stop offset="1" stop-color="#15AB49" stop-opacity="0"/>
</linearGradient>
<linearGradient id="paint5_linear_203_134" x1="400.311" y1="0" x2="400.311" y2="800.622" gradientUnits="userSpaceOnUse">
<stop stop-color="#D81B16"/>
<stop offset="1" stop-color="#15AB49" stop-opacity="0"/>
</linearGradient>
<linearGradient id="paint6_linear_203_134" x1="400.311" y1="0" x2="400.311" y2="800.622" gradientUnits="userSpaceOnUse">
<stop stop-color="#D81B16"/>
<stop offset="1" stop-color="#15AB49" stop-opacity="0"/>
</linearGradient>
<linearGradient id="paint7_linear_203_134" x1="400.311" y1="0" x2="400.311" y2="800.622" gradientUnits="userSpaceOnUse">
<stop stop-color="#D81B16"/>
<stop offset="1" stop-color="#15AB49" stop-opacity="0"/>
</linearGradient>
<linearGradient id="paint8_linear_203_134" x1="400.311" y1="0" x2="400.311" y2="800.622" gradientUnits="userSpaceOnUse">
<stop stop-color="#D81B16"/>
<stop offset="1" stop-color="#15AB49" stop-opacity="0"/>
</linearGradient>
<linearGradient id="paint9_linear_203_134" x1="400.311" y1="0" x2="400.311" y2="800.622" gradientUnits="userSpaceOnUse">
<stop stop-color="#D81B16"/>
<stop offset="1" stop-color="#15AB49" stop-opacity="0"/>
</linearGradient>
<linearGradient id="paint10_linear_203_134" x1="400.311" y1="0" x2="400.311" y2="800.622" gradientUnits="userSpaceOnUse">
<stop stop-color="#D81B16"/>
<stop offset="1" stop-color="#15AB49" stop-opacity="0"/>
</linearGradient>
<linearGradient id="paint11_linear_203_134" x1="400.311" y1="0" x2="400.311" y2="800.622" gradientUnits="userSpaceOnUse">
<stop stop-color="#D81B16"/>
<stop offset="1" stop-color="#15AB49" stop-opacity="0"/>
</linearGradient>
<linearGradient id="paint12_linear_203_134" x1="400.311" y1="0" x2="400.311" y2="800.622" gradientUnits="userSpaceOnUse">
<stop stop-color="#D81B16"/>
<stop offset="1" stop-color="#15AB49" stop-opacity="0"/>
</linearGradient>
<linearGradient id="paint13_linear_203_134" x1="400.311" y1="0" x2="400.311" y2="800.622" gradientUnits="userSpaceOnUse">
<stop stop-color="#D81B16"/>
<stop offset="1" stop-color="#15AB49" stop-opacity="0"/>
</linearGradient>
<linearGradient id="paint14_linear_203_134" x1="400.311" y1="0" x2="400.311" y2="800.622" gradientUnits="userSpaceOnUse">
<stop stop-color="#D81B16"/>
<stop offset="1" stop-color="#15AB49" stop-opacity="0"/>
</linearGradient>
<linearGradient id="paint15_linear_203_134" x1="400.311" y1="0" x2="400.311" y2="800.622" gradientUnits="userSpaceOnUse">
<stop stop-color="#D81B16"/>
<stop offset="1" stop-color="#15AB49" stop-opacity="0"/>
</linearGradient>
<linearGradient id="paint16_linear_203_134" x1="400.311" y1="0" x2="400.311" y2="800.622" gradientUnits="userSpaceOnUse">
<stop stop-color="#D81B16"/>
<stop offset="1" stop-color="#15AB49" stop-opacity="0"/>
</linearGradient>
<linearGradient id="paint17_linear_203_134" x1="400.311" y1="0" x2="400.311" y2="800.622" gradientUnits="userSpaceOnUse">
<stop stop-color="#D81B16"/>
<stop offset="1" stop-color="#15AB49" stop-opacity="0"/>
</linearGradient>
<linearGradient id="paint18_linear_203_134" x1="400.311" y1="0" x2="400.311" y2="800.622" gradientUnits="userSpaceOnUse">
<stop stop-color="#D81B16"/>
<stop offset="1" stop-color="#15AB49" stop-opacity="0"/>
</linearGradient>
<linearGradient id="paint19_linear_203_134" x1="400.311" y1="0" x2="400.311" y2="800.622" gradientUnits="userSpaceOnUse">
<stop stop-color="#D81B16"/>
<stop offset="1" stop-color="#15AB49" stop-opacity="0"/>
</linearGradient>
<linearGradient id="paint20_linear_203_134" x1="400.311" y1="0" x2="400.311" y2="800.622" gradientUnits="userSpaceOnUse">
<stop stop-color="#D81B16"/>
<stop offset="1" stop-color="#15AB49" stop-opacity="0"/>
</linearGradient>
<linearGradient id="paint21_linear_203_134" x1="400.311" y1="0" x2="400.311" y2="800.622" gradientUnits="userSpaceOnUse">
<stop stop-color="#D81B16"/>
<stop offset="1" stop-color="#15AB49" stop-opacity="0"/>
</linearGradient>
<linearGradient id="paint22_linear_203_134" x1="400.311" y1="0" x2="400.311" y2="800.622" gradientUnits="userSpaceOnUse">
<stop stop-color="#D81B16"/>
<stop offset="1" stop-color="#15AB49" stop-opacity="0"/>
</linearGradient>
<linearGradient id="paint23_linear_203_134" x1="400.311" y1="0" x2="400.311" y2="800.622" gradientUnits="userSpaceOnUse">
<stop stop-color="#D81B16"/>
<stop offset="1" stop-color="#15AB49" stop-opacity="0"/>
</linearGradient>
<linearGradient id="paint24_linear_203_134" x1="400.311" y1="0" x2="400.311" y2="800.622" gradientUnits="userSpaceOnUse">
<stop stop-color="#D81B16"/>
<stop offset="1" stop-color="#15AB49" stop-opacity="0"/>
</linearGradient>
<linearGradient id="paint25_linear_203_134" x1="400.311" y1="0" x2="400.311" y2="800.622" gradientUnits="userSpaceOnUse">
<stop stop-color="#D81B16"/>
<stop offset="1" stop-color="#15AB49" stop-opacity="0"/>
</linearGradient>
<linearGradient id="paint26_linear_203_134" x1="400.311" y1="0" x2="400.311" y2="800.622" gradientUnits="userSpaceOnUse">
<stop stop-color="#D81B16"/>
<stop offset="1" stop-color="#15AB49" stop-opacity="0"/>
</linearGradient>
<linearGradient id="paint27_linear_203_134" x1="400.311" y1="0" x2="400.311" y2="800.622" gradientUnits="userSpaceOnUse">
<stop stop-color="#D81B16"/>
<stop offset="1" stop-color="#15AB49" stop-opacity="0"/>
</linearGradient>
<linearGradient id="paint28_linear_203_134" x1="400.311" y1="0" x2="400.311" y2="800.622" gradientUnits="userSpaceOnUse">
<stop stop-color="#D81B16"/>
<stop offset="1" stop-color="#15AB49" stop-opacity="0"/>
</linearGradient>
<linearGradient id="paint29_linear_203_134" x1="400.311" y1="0" x2="400.311" y2="800.622" gradientUnits="userSpaceOnUse">
<stop stop-color="#D81B16"/>
<stop offset="1" stop-color="#15AB49" stop-opacity="0"/>
</linearGradient>
<linearGradient id="paint30_linear_203_134" x1="400.311" y1="0" x2="400.311" y2="800.622" gradientUnits="userSpaceOnUse">
<stop stop-color="#D81B16"/>
<stop offset="1" stop-color="#15AB49" stop-opacity="0"/>
</linearGradient>
<linearGradient id="paint31_linear_203_134" x1="400.311" y1="0" x2="400.311" y2="800.622" gradientUnits="userSpaceOnUse">
<stop stop-color="#D81B16"/>
<stop offset="1" stop-color="#15AB49" stop-opacity="0"/>
</linearGradient>
<linearGradient id="paint32_linear_203_134" x1="400.311" y1="0" x2="400.311" y2="800.622" gradientUnits="userSpaceOnUse">
<stop stop-color="#D81B16"/>
<stop offset="1" stop-color="#15AB49" stop-opacity="0"/>
</linearGradient>
</defs>
</svg>
